# xmcd CD database file
#
# Track frame offsets:
#	150
#	12581
#	27965
#	45954
#	64069
#	84766
#	98272
#	119056
#	137339
#	153567
#	165428
#	185946
#	201285
#	218928
#
# Disc length: 3276 seconds
#
# Revision: 0
# Processed by: cddbd v1.5.1PL2 Copyright (c) Steve Scherf et al.
# Submitted via: CDex 1.50
#
DISCID=b60cca0e
DTITLE=Luke O'Shea and Medicine Wheel - Listen to the Words
DYEAR=2005
DGENRE=Country
TTITLE0=Making Memories
TTITLE1=So Long
TTITLE2=Sweet Simplicity
TTITLE3=Wild Colonial Boys
TTITLE4=Brindabella
TTITLE5=Good Day To Die
TTITLE6=Listen To The Words
TTITLE7=Ragged Bloody Heroes
TTITLE8=Do We Bounce
TTITLE9=Nothing Better To Do
TTITLE10=Fire
TTITLE11=Pay Day
TTITLE12=Lone Ranger
TTITLE13=Little White Cross
EXTD=YEAR: 2005
EXTT0=
EXTT1=
EXTT2=
EXTT3=
EXTT4=
EXTT5=
EXTT6=
EXTT7=
EXTT8=
EXTT9=
EXTT10=
EXTT11=
EXTT12=
EXTT13=
PLAYORDER=
